<svg viewBox="0 0 108.81 16.33" xmlns="http://www.w3.org/2000/svg"><g fill="#4967aa"><path d="m4.6 3.16c0-.27-.08-.46-.24-.56s-.39-.16-.69-.16-.51.05-.68.16-.25.29-.25.56v10.01c0 .27.08.46.25.56.16.11.39.16.68.16s.53-.05.69-.16c.16-.1.24-.29.24-.56v-3.41h2.77v3.9c0 .42-.05.8-.16 1.13s-.29.61-.56.84-.65.4-1.13.52-1.1.18-1.85.18-1.37-.06-1.84-.18-.85-.29-1.12-.52-.46-.5-.56-.84c-.11-.33-.16-.71-.16-1.13v-11c0-.42.05-.8.16-1.13s.29-.61.56-.83c.27-.23.64-.4 1.12-.52.47-.12 1.09-.18 1.84-.18s1.37.06 1.85.18.86.29 1.13.52.46.5.56.83c.11.33.16.71.16 1.13v3.74h-2.77z"/><path d="m8.68.27h4.65c.41 0 .78.04 1.12.12s.62.22.86.41.42.44.55.77c.14.32.2.73.2 1.23v3.47c0 .44-.11.76-.34.98s-.44.37-.63.46v.16c.21.08.44.21.68.42.24.2.36.51.36.91v4.31c0 .48-.07.89-.2 1.22s-.32.59-.56.79-.53.33-.88.42c-.35.08-.73.12-1.15.12h-4.65v-15.79zm4.13 6.38c.12 0 .23-.05.33-.14s.15-.24.15-.45v-2.79c0-.21-.06-.36-.19-.44s-.26-.12-.39-.12h-1.24v3.95h1.35zm-.09 6.97c.16 0 .31-.04.44-.12s.19-.23.19-.44v-3.52c0-.16-.06-.28-.18-.35s-.24-.1-.36-.1h-1.35v4.53z"/><path d="m22.02 2.98c0-.36-.31-.54-.92-.54-.65 0-.97.18-.97.54v1.56c0 .26.03.45.08.59s.12.25.21.34l3.43 3.14c.3.26.54.55.72.88s.27.8.27 1.4v2.68c0 .99-.3 1.7-.89 2.13s-1.54.64-2.85.64c-.68 0-1.26-.04-1.75-.14-.49-.09-.88-.24-1.18-.46s-.52-.5-.66-.86c-.14-.35-.21-.79-.21-1.32v-3.63h2.75v3.32c0 .24.09.41.28.51s.45.15.78.15c.29 0 .52-.05.7-.15s.27-.27.27-.51v-2.1c0-.21-.02-.38-.07-.51-.04-.13-.13-.25-.25-.35l-3.2-2.78c-.38-.33-.67-.69-.88-1.08s-.32-.94-.32-1.65v-2.01c0-1.01.29-1.72.88-2.14.59-.42 1.54-.63 2.87-.63s2.35.21 2.89.64.81 1.11.81 2.04v3.02h-2.78v-2.72z"/><path d="m32.32 3.25c.69.47 1.39.92 2.12 1.35v-.09s-1.16-2.69-1.16-2.69c-.22-.5-.43-1.02-.65-1.55h-2.2v2.04c.1-.08.23-.13.36-.15.8-.08.9.84 1.53 1.09"/><path d="m37.23 12.16-.88-2.51-1.12-2.86-.24-.59-.57-.36-2.57-1.48c-.38-.29-.94-.36-1.23-.73-.05-.09-.11-.18-.17-.27v12.72h8.06l-.03-.11-1.23-3.8"/><path d="m35.33 4.94c.13.55.71.68 1.08 1 1.47 1.02 2.98 2.1 4.42 3.19 0 0 .03.02.08.05v-.03s0-1.26.04-2.1c-.06-1.65-.19-3.9-.48-5.32-.17-.4-.36-.79-.3-1.19 0-.09 0-.18-.03-.27h-6.37c.07.21.14.41.21.62.45 1.34.87 2.71 1.35 4.04"/><path d="m41.6.84c.2.49.05.98.09 1.48.06 1.41.12 2.83-.1 4.24-.08.95-.16 1.9-.17 2.85v.16c.06.05.11.09.12.12l.04-.03.73-2.24.91-3.03c.27-1.14.71-2.29.75-3.44-.1-.2-.2-.44-.2-.67h-2.17c.01.19.01.38-.02.57"/><path d="m40.99 11.33v-1.29c-.07-.04-.13-.09-.17-.14-1.32-.98-2.76-1.85-4.15-2.72-.1.02-.08.15-.1.22.41 2.6 1.38 5.19 2.17 7.79.1.29.17.59.26.88h.44c.45-1.34.88-2.65 1.32-4.01.08-.24.15-.48.22-.73"/><path d="m45.42.27s-.01.05-.02.08c-.28 1.07-.59 2.13-1.07 3.19-.32.72-.56 1.5-.79 2.25-.42.63-.67 1.37-.95 2.08l-.75 2.03c.17.17.4.29.56.48 1.24.96 2.47 1.95 3.62 3.01.07.09.14.18.22.26v-13.38h-.81"/><path d="m41 12.64-.34.87c-.29.86-.56 1.71-.82 2.56h1.04l.12-3.39z"/><path d="m42.52 11.1q-.37-.26-.45-.32s0 0-.02-.02c-.03-.02-.07-.04-.1-.06h-.02c-.03-.02-.07-.05-.11-.08-.02.02-.02.11-.04.14-.05.14-.14.25-.14.25-.05.15-.1.25-.14.35v.46c0 .96-.12 2.61-.09 2.73 0 0-.03.94-.06 1.5h4.87v-2.38h-.13c-1.2-.86-2.37-1.73-3.58-2.58"/><path d="m53.89 1.48c0-.11-.03-.19-.1-.23-.06-.04-.16-.06-.28-.06s-.21.02-.28.06-.1.12-.1.23v4.05c0 .11.03.19.1.23s.16.06.28.06.22-.02.28-.06.1-.12.1-.23v-1.37h1.14v1.57c0 .17-.02.33-.07.46-.04.14-.12.25-.23.34s-.27.16-.46.21c-.2.05-.45.07-.76.07s-.56-.02-.76-.07-.35-.12-.46-.21-.19-.21-.23-.34c-.04-.14-.07-.29-.07-.46v-4.46c0-.17.02-.33.07-.47.04-.14.12-.25.23-.34s.27-.16.46-.21c.2-.05.45-.07.76-.07s.56.02.76.07.35.12.46.21.19.21.23.34c.04.14.07.29.07.47v1.51h-1.14z"/><path d="m56.02 1.45c0-.25.03-.45.08-.62.06-.16.15-.3.27-.4.13-.1.29-.17.49-.2.2-.04.45-.06.75-.06s.55.02.75.06.37.11.5.2c.13.1.22.23.27.4.06.16.08.37.08.62v4.1c0 .25-.03.46-.08.63-.06.16-.15.29-.27.39s-.29.16-.5.2c-.2.04-.46.06-.75.06s-.55-.02-.75-.06-.37-.11-.49-.2c-.13-.1-.22-.23-.27-.39-.06-.16-.08-.37-.08-.63zm1.14 4c0 .13.03.23.1.29s.18.09.36.09.3-.03.36-.09.09-.16.09-.29v-3.89c0-.13-.03-.23-.09-.29s-.18-.09-.36-.09-.29.03-.36.09-.1.16-.1.29z"/><path d="m60.31.25h1.92c.17 0 .33.02.47.05.15.03.28.09.39.17s.2.18.26.32.1.3.1.51v1.6c0 .35-.09.64-.28.85s-.48.32-.87.32h-.84v2.7h-1.14v-6.52zm1.79 2.8c.13 0 .2-.08.2-.24v-1.32c0-.09-.02-.15-.07-.18s-.1-.05-.17-.05h-.6v1.79h.65z"/><path d="m64.24.25h2.64v1.01h-1.5v1.63h1.45v1h-1.45v1.87h1.5v1h-2.64z"/><path d="m69.85.25.94 5.13h.1v-5.13h1.06v6.51h-1.79l-1-5.31h-.13v5.31h-1.06v-6.51h1.89z"/><path d="m75.33.25h1.14v6.51h-1.14v-2.87h-.97v2.87h-1.14v-6.51h1.14v2.63h.97z"/><path d="m79.7 5.03h-1.1l-.23 1.73h-1.14l.89-6.51h2.06l.91 6.51h-1.15l-.23-1.73zm-.45-3.65h-.19l-.33 2.65h.83z"/><path d="m83.44 3.05h1.53v3.59c-.18.05-.4.09-.67.13-.26.03-.53.05-.81.05-.37 0-.66-.03-.87-.08s-.38-.14-.5-.25-.19-.25-.23-.41c-.03-.16-.05-.35-.05-.57v-4.12c0-.2.02-.37.07-.53.04-.15.12-.28.24-.38s.28-.18.48-.23.46-.07.78-.07.58.02.78.07.36.13.48.23.2.23.24.38.06.33.06.53v1.05h-1.14v-.98c0-.09-.03-.16-.09-.2-.06-.05-.17-.07-.33-.07s-.27.02-.33.07-.09.12-.09.2v4.04c0 .13.04.22.13.26s.19.06.32.06h.22.17v-1.74h-.38v-1.01z"/><path d="m86.04.25h2.64v1.01h-1.5v1.63h1.45v1h-1.45v1.87h1.5v1h-2.64z"/><path d="m91.46.25.94 5.13h.1v-5.13h1.06v6.51h-1.79l-1-5.31h-.13v5.31h-1.06v-6.51h1.89z"/><path d="m51.99 9.55h1.92c.17 0 .32.02.46.05s.26.09.35.17c.1.08.17.18.23.32s.08.3.08.51v1.43c0 .18-.05.31-.14.4s-.18.15-.26.19v.06c.09.03.18.09.28.17s.15.21.15.38v1.78c0 .2-.03.37-.08.5-.06.14-.13.25-.23.33s-.22.14-.36.17-.3.05-.47.05h-1.92v-6.51zm1.7 2.63s.09-.02.13-.06.06-.1.06-.19v-1.15c0-.09-.03-.15-.08-.18s-.11-.05-.16-.05h-.51v1.63zm-.04 2.87c.07 0 .13-.02.18-.05s.08-.09.08-.18v-1.45c0-.07-.02-.12-.07-.14-.05-.03-.1-.04-.15-.04h-.56v1.87h.52z"/><path d="m56.14 9.55h1.14v5.2c0 .14.03.24.09.3s.18.08.35.08.28-.03.33-.08.08-.15.08-.3v-5.2h1.15v5.3c0 .2-.02.39-.06.54s-.12.29-.24.4-.28.2-.48.25-.46.08-.78.08-.59-.03-.79-.08-.37-.14-.48-.25c-.12-.11-.2-.25-.24-.4-.04-.16-.07-.34-.07-.54z"/><path d="m62.14 10.7c0-.15-.13-.22-.38-.22s-.4.07-.4.22v.6c0 .11.01.19.03.24.02.06.05.1.09.14l1.41 1.29c.12.11.22.23.3.36.07.14.11.33.11.58v1.07c0 .41-.12.7-.37.88s-.64.26-1.18.26c-.28 0-.52-.02-.72-.06s-.36-.1-.49-.19-.22-.21-.27-.35c-.06-.15-.09-.33-.09-.54v-1.46h1.13v1.33c0 .1.04.17.12.21s.18.06.32.06c.12 0 .21-.02.29-.06.07-.04.11-.11.11-.21v-.83c0-.09 0-.16-.03-.21-.02-.05-.05-.1-.1-.14l-1.32-1.14c-.15-.14-.28-.28-.36-.45-.09-.16-.13-.39-.13-.68v-.79c0-.42.12-.71.36-.88s.64-.26 1.18-.26.97.09 1.19.27.33.46.33.84v1.21h-1.14v-1.09z"/><path d="m64.38 12.57v-3.02h1.14v6.51h-1.14z"/><path d="m68.68 9.55.94 5.13h.1v-5.13h1.06v6.51h-1.79l-1-5.31h-.13v5.31h-1.06v-6.51h1.89z"/><path d="m72.04 9.55h2.64v1h-1.5v1.63h1.45v1h-1.45v1.87h1.5v1h-2.64v-6.51z"/><path d="m77.34 10.7c0-.15-.13-.22-.38-.22s-.4.07-.4.22v.6c0 .11.01.19.03.24.02.06.05.1.09.14l1.41 1.29c.12.11.22.23.3.36.07.14.11.33.11.58v1.07c0 .41-.12.7-.37.88s-.64.26-1.18.26c-.28 0-.52-.02-.72-.06s-.36-.1-.49-.19-.22-.21-.27-.35c-.06-.15-.09-.33-.09-.54v-1.46h1.13v1.33c0 .1.04.17.12.21s.18.06.32.06c.12 0 .21-.02.29-.06.07-.04.11-.11.11-.21v-.83c0-.09 0-.16-.03-.21-.02-.05-.05-.1-.1-.14l-1.32-1.14c-.15-.14-.28-.28-.36-.45-.09-.16-.13-.39-.13-.68v-.79c0-.42.12-.71.36-.88s.64-.26 1.18-.26.97.09 1.19.27.33.46.33.84v1.21h-1.14v-1.09z"/><path d="m81.35 10.7c0-.15-.13-.22-.38-.22s-.4.07-.4.22v.6c0 .11.01.19.03.24.02.06.05.1.09.14l1.41 1.29c.12.11.22.23.3.36.07.14.11.33.11.58v1.07c0 .41-.12.7-.37.88s-.64.26-1.18.26c-.28 0-.52-.02-.72-.06s-.36-.1-.49-.19-.22-.21-.27-.35c-.06-.15-.09-.33-.09-.54v-1.46h1.13v1.33c0 .1.04.17.12.21s.18.06.32.06c.12 0 .21-.02.29-.06.07-.04.11-.11.11-.21v-.83c0-.09 0-.16-.03-.21-.02-.05-.05-.1-.1-.14l-1.32-1.14c-.15-.14-.28-.28-.36-.45-.09-.16-.13-.39-.13-.68v-.79c0-.42.12-.71.36-.88s.64-.26 1.18-.26.97.09 1.19.27.33.46.33.84v1.21h-1.14v-1.09z"/><path d="m87.13 10.7c0-.15-.13-.22-.38-.22-.27 0-.4.07-.4.22v.6c0 .11.01.19.03.24.02.06.05.1.09.14l1.41 1.29c.12.11.22.23.3.36.07.14.11.33.11.58v1.07c0 .41-.12.7-.37.88s-.64.26-1.18.26c-.28 0-.52-.02-.72-.06s-.36-.1-.49-.19-.22-.21-.27-.35c-.06-.15-.09-.33-.09-.54v-1.46h1.13v1.33c0 .1.04.17.12.21s.18.06.32.06c.12 0 .21-.02.29-.06.07-.04.11-.11.11-.21v-.83c0-.09 0-.16-.03-.21-.02-.05-.05-.1-.1-.14l-1.32-1.14c-.15-.14-.28-.28-.36-.45-.09-.16-.13-.39-.13-.68v-.79c0-.42.12-.71.36-.88s.64-.26 1.18-.26.97.09 1.19.27.33.46.33.84v1.21h-1.14v-1.09z"/><path d="m91.08 10.78c0-.11-.03-.19-.1-.23-.06-.04-.16-.06-.28-.06s-.21.02-.28.06-.1.12-.1.23v4.05c0 .11.03.19.1.23s.16.06.28.06.22-.02.28-.06c.07-.04.1-.12.1-.23v-1.37h1.14v1.57c0 .17-.02.33-.07.46-.04.14-.12.25-.23.34s-.27.16-.46.21c-.2.05-.45.07-.76.07s-.56-.02-.76-.07-.35-.12-.46-.21-.19-.21-.23-.34c-.04-.14-.07-.29-.07-.46v-4.46c0-.17.02-.33.07-.47.04-.14.12-.25.23-.34s.27-.16.46-.21c.2-.05.45-.07.76-.07s.56.02.76.07.35.12.46.21.19.21.23.34c.04.14.07.29.07.47v1.51h-1.14z"/><path d="m95.32 9.55h1.14v6.51h-1.14v-2.87h-.97v2.87h-1.14v-6.51h1.14v2.63h.97z"/><path d="m97.54 10.75c0-.25.03-.45.08-.62.06-.16.15-.3.27-.4.13-.1.29-.17.49-.2.2-.04.45-.06.75-.06s.55.02.75.06c.21.04.37.11.5.2.13.1.22.23.27.4.06.16.08.37.08.62v4.1c0 .25-.03.46-.08.63-.06.16-.15.29-.27.39s-.29.16-.5.2c-.2.04-.46.06-.75.06s-.55-.02-.75-.06-.37-.11-.49-.2c-.13-.1-.22-.23-.27-.39-.06-.16-.08-.37-.08-.63zm1.14 4c0 .13.03.23.1.29s.18.09.36.09.3-.03.36-.09.09-.16.09-.29v-3.89c0-.13-.03-.23-.09-.29s-.18-.09-.36-.09-.29.03-.36.09c-.06.06-.1.16-.1.29z"/><path d="m101.83 10.75c0-.25.03-.45.08-.62.06-.16.15-.3.27-.4.13-.1.29-.17.49-.2.2-.04.45-.06.75-.06s.55.02.75.06c.21.04.37.11.5.2.13.1.22.23.27.4.06.16.08.37.08.62v4.1c0 .25-.03.46-.08.63-.06.16-.15.29-.27.39s-.29.16-.5.2c-.2.04-.46.06-.75.06s-.55-.02-.75-.06-.37-.11-.49-.2c-.13-.1-.22-.23-.27-.39-.06-.16-.08-.37-.08-.63zm1.14 4c0 .13.03.23.1.29s.18.09.36.09.3-.03.36-.09.09-.16.09-.29v-3.89c0-.13-.03-.23-.09-.29s-.18-.09-.36-.09-.29.03-.36.09c-.06.06-.1.16-.1.29z"/><path d="m106.12 9.55h1.14v5.51h1.54v1h-2.69v-6.51z"/></g></svg>